<svg width="104" height="104" viewBox="0 0 104 104" fill="none" xmlns="http://www.w3.org/2000/svg">
<path d="M52 -0.000109051C23.2814 -0.000109051 0 23.2843 0 52.0037C0 80.7155 23.2814 104.004 52 104.004C80.7186 104.004 104 80.7155 104 52.0037C104 23.2843 80.7186 -0.000109051 52 -0.000109051Z" fill="#3F3BFF"/>
<path d="M77.3184 30.8799C77.1197 30.2944 76.8824 30.1404 76.5118 29.994C75.7014 29.6935 74.3286 30.1481 74.3286 30.1481C74.3286 30.1481 25.7298 47.6201 22.9534 49.5537C22.3556 49.9697 22.1553 50.2162 22.0559 50.5012C21.576 51.8725 23.0712 52.4811 23.0712 52.4811L35.5975 56.5641C35.5975 56.5641 36.0643 56.6334 36.2307 56.5255C39.0803 54.7229 64.9008 38.4218 66.39 37.8749C66.6249 37.8055 66.799 37.8826 66.7528 38.0444C66.1565 40.1398 43.7303 60.0693 43.7303 60.0693C43.7303 60.0693 43.6448 60.1771 43.5908 60.3004L43.5616 60.2849L42.3929 72.711C42.3929 72.711 41.903 76.5167 45.7094 72.711C48.3949 70.0224 50.9933 67.7729 52.2937 66.6867C56.6009 69.6604 61.2362 72.9498 63.2368 74.6678C64.2414 75.5306 65.0819 75.6692 65.7737 75.6461C67.6726 75.5768 68.2026 73.4891 68.2026 73.4891C68.2026 73.4891 77.0588 37.8441 77.3546 33.0678C77.3839 32.5978 77.424 32.3051 77.427 31.9815C77.4324 31.5347 77.3908 31.0879 77.3184 30.8799Z" fill="#8BCA36"/>
</svg>
