<svg width="104" height="104" viewBox="0 0 104 104" fill="none" xmlns="http://www.w3.org/2000/svg">
<path fill-rule="evenodd" clip-rule="evenodd" d="M104 52C104 80.7186 80.7194 104 52 104C23.2806 104 0 80.7186 0 52C0 23.2806 23.2806 8.34465e-07 52 8.34465e-07C80.7194 8.34465e-07 104 23.2806 104 52Z" fill="#3F3BFF"/>
<path d="M41.4941 81.9482C66.8932 81.9482 80.783 60.9071 80.783 42.6617C80.783 42.0639 80.7676 41.4684 80.7445 40.8767C83.4408 38.9277 85.7827 36.4956 87.6316 33.7276C85.1587 34.8262 82.4932 35.5674 79.7045 35.9009C82.5549 34.1923 84.7427 31.4867 85.775 28.2627C83.1018 29.845 80.1513 30.9952 77.0082 31.6145C74.4814 28.9306 70.8991 27.2519 66.924 27.2519C59.2974 27.2519 53.119 33.4357 53.119 41.0585C53.119 42.1424 53.2346 43.1963 53.4734 44.207C41.9949 43.63 31.8259 38.1357 25.0159 29.7811C23.8295 31.8202 23.1439 34.1922 23.1439 36.7206C23.1439 41.5115 25.5782 45.7401 29.2914 48.2145C27.0265 48.1444 24.8926 47.5219 23.036 46.4865C23.0283 46.5443 23.0283 46.6021 23.0283 46.6629C23.0283 53.3505 27.7892 58.9335 34.1062 60.1999C32.9507 60.515 31.7258 60.6853 30.4701 60.6853C29.5764 60.6853 28.7136 60.5974 27.8739 60.4364C29.6304 65.9222 34.7302 69.9143 40.7699 70.0268C36.0476 73.7299 30.0926 75.937 23.6215 75.937C22.5122 75.937 21.4105 75.8739 20.332 75.746C26.4411 79.6618 33.698 81.9482 41.4941 81.9482Z" fill="#8BCA36"/>
</svg>
